<?xml version="1.0" encoding="UTF-8" standalone="no"?>
<svg
   xmlns:dc="http://purl.org/dc/elements/1.1/"
   xmlns:cc="http://creativecommons.org/ns#"
   xmlns:rdf="http://www.w3.org/1999/02/22-rdf-syntax-ns#"
   xmlns:svg="http://www.w3.org/2000/svg"
   xmlns="http://www.w3.org/2000/svg"
   id="svg1624"
   version="1.1"
   viewBox="0 0 46.302085 46.302083"
   height="175"
   width="175">
  <defs
     id="defs1618">
    <clipPath
       id="clipPath18"
       clipPathUnits="userSpaceOnUse">
      <path
         id="path16"
         d="m 175.612,277.51 c -0.121,-0.011 -0.234,-0.043 -0.351,-0.067 v 0 c -0.108,-0.022 -0.222,-0.033 -0.326,-0.067 v 0 c -0.095,-0.029 -0.18,-0.078 -0.27,-0.117 v 0 c -0.115,-0.048 -0.231,-0.089 -0.337,-0.151 v 0 c -0.092,-0.053 -0.17,-0.124 -0.255,-0.186 v 0 c -0.091,-0.068 -0.189,-0.126 -0.271,-0.203 v 0 c -0.085,-0.079 -0.153,-0.174 -0.229,-0.263 v 0 c -0.067,-0.08 -0.144,-0.153 -0.203,-0.242 v 0 c -0.058,-0.083 -0.099,-0.181 -0.149,-0.272 v 0 c -0.061,-0.111 -0.128,-0.217 -0.176,-0.337 v 0 c -0.032,-0.08 -0.047,-0.169 -0.074,-0.254 v 0 c -0.046,-0.145 -0.094,-0.289 -0.121,-0.444 v 0 c -0.001,-0.011 -0.006,-0.02 -0.008,-0.031 v 0 c -0.018,-0.11 -0.012,-0.223 -0.02,-0.336 v 0 c -0.009,-0.115 -0.03,-0.225 -0.027,-0.344 v 0 l 0.001,-0.074 c 0,-0.001 0,-0.001 0,-0.001 v 0 c 0,0 0.2,-10.312 0.205,-10.38 v 0 c 1.05,-15.038 9.968,-44.393 36.2,-47.86 v 0 c 0.852,-0.112 1.669,0.087 2.312,0.564 v 0 l 4.779,3.546 4.779,3.545 c 0.642,0.477 1.071,1.2 1.21,2.048 v 0 c 4.291,26.11 -21.215,43.16 -35.302,48.527 v 0 c -0.062,0.024 -9.873,3.207 -9.873,3.207 v 0 c -0.001,0 -0.001,0 -0.001,0 v 0 l -0.071,0.022 c -0.114,0.037 -0.225,0.049 -0.338,0.074 v 0 c -0.11,0.025 -0.215,0.063 -0.328,0.078 v 0 c -0.01,10e-4 -0.02,0 -0.03,10e-4 v 0 c -0.152,0.019 -0.298,0.015 -0.446,0.014 v 0 c -0.037,-0.001 -0.073,10e-4 -0.11,0.003 v 0 c -0.035,0.001 -0.069,0.002 -0.103,0.002 v 0 c -0.023,0 -0.045,-10e-4 -0.067,-0.002 m 12.109,-34.472 c -3.052,4.115 -2.191,9.924 1.923,12.976 v 0 c 4.115,3.052 9.924,2.192 12.977,-1.923 v 0 c 3.052,-4.114 2.19,-9.924 -1.924,-12.976 v 0 c -1.661,-1.232 -3.598,-1.826 -5.519,-1.826 v 0 c -2.837,-10e-4 -5.636,1.296 -7.457,3.749" />
    </clipPath>
    <linearGradient
       id="linearGradient30"
       spreadMethod="pad"
       gradientTransform="matrix(21.37623,37.024715,37.024715,-21.37623,184.26424,227.19221)"
       gradientUnits="userSpaceOnUse"
       y2="0"
       x2="1"
       y1="0"
       x1="0">
      <stop
         id="stop24"
         offset="0"
         style="stop-opacity:1;stop-color:#113e74" />
      <stop
         id="stop26"
         offset="0.89544754"
         style="stop-opacity:1;stop-color:#2270c1" />
      <stop
         id="stop28"
         offset="1"
         style="stop-opacity:1;stop-color:#2270c1" />
    </linearGradient>
    <clipPath
       id="clipPath40"
       clipPathUnits="userSpaceOnUse">
      <path
         id="path38"
         d="m 229.214,231.504 7.96,-1.18 3.263,22.013 c 0.371,2.497 -1.355,4.823 -3.852,5.193 v 0 l -16.726,2.478 c 6.392,-7.572 10.684,-17.15 9.355,-28.504" />
    </clipPath>
    <linearGradient
       id="linearGradient52"
       spreadMethod="pad"
       gradientTransform="matrix(17.33464,17.33464,17.33464,-17.33464,222.03453,238.68347)"
       gradientUnits="userSpaceOnUse"
       y2="0"
       x2="1"
       y1="0"
       x1="0">
      <stop
         id="stop46"
         offset="0"
         style="stop-opacity:1;stop-color:#31ad3d" />
      <stop
         id="stop48"
         offset="0.30840837"
         style="stop-opacity:1;stop-color:#31ad3d" />
      <stop
         id="stop50"
         offset="1"
         style="stop-opacity:1;stop-color:#80cc28" />
    </linearGradient>
    <clipPath
       id="clipPath62"
       clipPathUnits="userSpaceOnUse">
      <path
         id="path60"
         d="m 175,209.727 c -0.371,-2.498 1.354,-4.822 3.852,-5.192 v 0 l 22.013,-3.264 1.225,8.28 c -11.267,2.124 -19.164,9.153 -24.513,17.568 v 0 z" />
    </clipPath>
    <linearGradient
       id="linearGradient74"
       spreadMethod="pad"
       gradientTransform="matrix(14.764113,14.764113,14.764113,-14.764113,178.56903,203.54335)"
       gradientUnits="userSpaceOnUse"
       y2="0"
       x2="1"
       y1="0"
       x1="0">
      <stop
         id="stop68"
         offset="0"
         style="stop-opacity:1;stop-color:#31ad3d" />
      <stop
         id="stop70"
         offset="0.30840837"
         style="stop-opacity:1;stop-color:#31ad3d" />
      <stop
         id="stop72"
         offset="1"
         style="stop-opacity:1;stop-color:#80cc28" />
    </linearGradient>
    <clipPath
       id="clipPath84"
       clipPathUnits="userSpaceOnUse">
      <path
         id="path82"
         d="m 143.18,292.811 c -6.526,-14.545 -0.002,-31.689 14.545,-38.215 v 0 c 2.166,-0.972 4.39,-1.638 6.628,-2.046 v 0 c -1.305,4.007 -2.296,7.94 -3.018,11.631 v 0 c -9.015,4.412 -12.997,15.234 -8.858,24.46 v 0 c 4.226,9.419 15.327,13.645 24.746,9.419 v 0 c 5.682,-2.549 9.448,-7.601 10.629,-13.274 v 0 c 3.389,-1.759 6.951,-3.864 10.505,-6.312 v 0 c 1.025,11.911 -5.454,23.72 -16.962,28.883 v 0 c -3.831,1.719 -7.842,2.532 -11.792,2.532 v 0 c -11.048,0 -21.616,-6.363 -26.423,-17.078" />
    </clipPath>
    <linearGradient
       id="linearGradient96"
       spreadMethod="pad"
       gradientTransform="matrix(28.914967,50.082191,50.082191,-28.914967,153.92281,256.61642)"
       gradientUnits="userSpaceOnUse"
       y2="0"
       x2="1"
       y1="0"
       x1="0">
      <stop
         id="stop90"
         offset="0"
         style="stop-opacity:1;stop-color:#113e74" />
      <stop
         id="stop92"
         offset="0.89544754"
         style="stop-opacity:1;stop-color:#2270c1" />
      <stop
         id="stop94"
         offset="1"
         style="stop-opacity:1;stop-color:#2270c1" />
    </linearGradient>
    <clipPath
       id="clipPath106"
       clipPathUnits="userSpaceOnUse">
      <path
         id="path104"
         d="m 123.799,301.506 c -11.329,-25.25 -0.002,-55.01 25.249,-66.34 v 0 c 7.46,-3.346 15.312,-4.7 22.966,-4.314 v 0 c -2.15,3.695 -3.998,7.528 -5.572,11.378 v 0 c -4.298,0.342 -8.609,1.393 -12.763,3.257 v 0 c -19.561,8.776 -28.336,31.828 -19.56,51.39 v 0 c 8.775,19.561 31.829,28.335 51.389,19.559 v 0 c 16.773,-7.525 25.6,-25.545 22.247,-42.861 v 0 c 3.266,-2.624 6.439,-5.508 9.396,-8.647 v 0 c 8.176,24.186 -3.25,51.168 -27.012,61.829 v 0 c -6.651,2.983 -13.615,4.395 -20.472,4.395 v 0 c -19.178,0.001 -37.524,-11.045 -45.868,-29.646" />
    </clipPath>
    <linearGradient
       id="linearGradient118"
       spreadMethod="pad"
       gradientTransform="matrix(50.194958,86.940216,86.940216,-50.194958,144.06662,237.73917)"
       gradientUnits="userSpaceOnUse"
       y2="0"
       x2="1"
       y1="0"
       x1="0">
      <stop
         id="stop112"
         offset="0"
         style="stop-opacity:1;stop-color:#113e74" />
      <stop
         id="stop114"
         offset="0.89544754"
         style="stop-opacity:1;stop-color:#2270c1" />
      <stop
         id="stop116"
         offset="1"
         style="stop-opacity:1;stop-color:#2270c1" />
    </linearGradient>
    <clipPath
       id="clipPath128"
       clipPathUnits="userSpaceOnUse">
      <path
         id="path126"
         d="m 160.947,284.841 c -2.141,-4.772 -0.008,-10.375 4.764,-12.515 v 0 c 0.406,-0.183 0.82,-0.323 1.237,-0.445 v 0 c -0.07,3.602 -0.177,9.076 -0.177,9.076 v 0 0.001 l -10e-4,0.087 c -0.004,0.14 0.022,0.269 0.031,0.404 v 0 c 0.01,0.131 0.003,0.263 0.024,0.393 v 0 c 0.003,0.013 0.008,0.024 0.01,0.035 v 0 c 0.031,0.184 0.088,0.351 0.141,0.522 v 0 c 0.031,0.098 0.05,0.204 0.087,0.297 v 0 c 0.056,0.14 0.134,0.264 0.206,0.394 v 0 c 0.058,0.107 0.106,0.222 0.173,0.32 v 0 c 0.07,0.103 0.16,0.188 0.24,0.282 v 0 c 0.088,0.104 0.169,0.217 0.267,0.308 v 0 c 0.097,0.09 0.211,0.16 0.318,0.238 v 0 c 0.1,0.073 0.191,0.157 0.298,0.219 v 0 c 0.124,0.072 0.261,0.119 0.395,0.176 v 0 c 0.106,0.046 0.206,0.103 0.317,0.138 v 0 c 0.122,0.038 0.254,0.052 0.382,0.078 v 0 c 0.136,0.027 0.269,0.065 0.41,0.077 v 0 c 0.066,0.006 0.134,0.003 0.203,0 v 0 c 0.042,-10e-4 0.084,-0.003 0.126,-0.002 v 0 c 0.173,0 0.344,0.006 0.521,-0.016 v 0 c 0.004,-0.001 0.01,-0.001 0.015,-0.001 v 0 c 0.007,0.001 0.015,0.001 0.022,0 v 0 c 0.131,-0.017 0.256,-0.062 0.384,-0.091 v 0 c 0.132,-0.031 0.262,-0.044 0.395,-0.088 v 0 l 0.083,-0.027 h 10e-4 c 0,0 3.862,-1.252 7.123,-2.311 v 0 c -0.472,3.07 -2.435,5.848 -5.48,7.214 v 0 c -1.258,0.565 -2.575,0.832 -3.871,0.832 v 0 c -3.616,0 -7.068,-2.082 -8.644,-5.595" />
    </clipPath>
    <linearGradient
       id="linearGradient140"
       spreadMethod="pad"
       gradientTransform="matrix(13.393727,13.393727,13.393727,-13.393727,161.52263,275.63351)"
       gradientUnits="userSpaceOnUse"
       y2="0"
       x2="1"
       y1="0"
       x1="0">
      <stop
         id="stop134"
         offset="0"
         style="stop-opacity:1;stop-color:#31ad3d" />
      <stop
         id="stop136"
         offset="0.30840837"
         style="stop-opacity:1;stop-color:#31ad3d" />
      <stop
         id="stop138"
         offset="1"
         style="stop-opacity:1;stop-color:#80cc28" />
    </linearGradient>
  </defs>
  <metadata
     id="metadata1621">
    <rdf:RDF>
      <cc:Work
         rdf:about="">
        <dc:format>image/svg+xml</dc:format>
        <dc:type
           rdf:resource="http://purl.org/dc/dcmitype/StillImage" />
        <dc:title></dc:title>
      </cc:Work>
    </rdf:RDF>
  </metadata>
  <g
     transform="translate(211.10198,18.190136)"
     id="layer1">
    <g
       id="g1193"
       transform="matrix(0.35277777,0,0,-0.35277777,-251.43154,98.874405)">
      <g
         id="g12">
        <g
           id="g14"
           clip-path="url(#clipPath18)">
          <g
             id="g20">
            <g
               id="g22">
              <path
                 d="m 175.612,277.51 c -0.121,-0.011 -0.234,-0.043 -0.351,-0.067 v 0 c -0.108,-0.022 -0.222,-0.033 -0.326,-0.067 v 0 c -0.095,-0.029 -0.18,-0.078 -0.27,-0.117 v 0 c -0.115,-0.048 -0.231,-0.089 -0.337,-0.151 v 0 c -0.092,-0.053 -0.17,-0.124 -0.255,-0.186 v 0 c -0.091,-0.068 -0.189,-0.126 -0.271,-0.203 v 0 c -0.085,-0.079 -0.153,-0.174 -0.229,-0.263 v 0 c -0.067,-0.08 -0.144,-0.153 -0.203,-0.242 v 0 c -0.058,-0.083 -0.099,-0.181 -0.149,-0.272 v 0 c -0.061,-0.111 -0.128,-0.217 -0.176,-0.337 v 0 c -0.032,-0.08 -0.047,-0.169 -0.074,-0.254 v 0 c -0.046,-0.145 -0.094,-0.289 -0.121,-0.444 v 0 c -0.001,-0.011 -0.006,-0.02 -0.008,-0.031 v 0 c -0.018,-0.11 -0.012,-0.223 -0.02,-0.336 v 0 c -0.009,-0.115 -0.03,-0.225 -0.027,-0.344 v 0 l 0.001,-0.074 c 0,-0.001 0,-0.001 0,-0.001 v 0 c 0,0 0.2,-10.312 0.205,-10.38 v 0 c 1.05,-15.038 9.968,-44.393 36.2,-47.86 v 0 c 0.852,-0.112 1.669,0.087 2.312,0.564 v 0 l 4.779,3.546 4.779,3.545 c 0.642,0.477 1.071,1.2 1.21,2.048 v 0 c 4.291,26.11 -21.215,43.16 -35.302,48.527 v 0 c -0.062,0.024 -9.873,3.207 -9.873,3.207 v 0 c -0.001,0 -0.001,0 -0.001,0 v 0 l -0.071,0.022 c -0.114,0.037 -0.225,0.049 -0.338,0.074 v 0 c -0.11,0.025 -0.215,0.063 -0.328,0.078 v 0 c -0.01,10e-4 -0.02,0 -0.03,10e-4 v 0 c -0.152,0.019 -0.298,0.015 -0.446,0.014 v 0 c -0.037,-0.001 -0.073,10e-4 -0.11,0.003 v 0 c -0.035,0.001 -0.069,0.002 -0.103,0.002 v 0 c -0.023,0 -0.045,-10e-4 -0.067,-0.002 m 12.109,-34.472 c -3.052,4.115 -2.191,9.924 1.923,12.976 v 0 c 4.115,3.052 9.924,2.192 12.977,-1.923 v 0 c 3.052,-4.114 2.19,-9.924 -1.924,-12.976 v 0 c -1.661,-1.232 -3.598,-1.826 -5.519,-1.826 v 0 c -2.837,-10e-4 -5.636,1.296 -7.457,3.749"
                 style="fill:url(#linearGradient30);stroke:none"
                 id="path32" />
            </g>
          </g>
        </g>
      </g>
      <g
         id="g34">
        <g
           id="g36"
           clip-path="url(#clipPath40)">
          <g
             id="g42">
            <g
               id="g44">
              <path
                 d="m 229.214,231.504 7.96,-1.18 3.263,22.013 c 0.371,2.497 -1.355,4.823 -3.852,5.193 v 0 l -16.726,2.478 c 6.392,-7.572 10.684,-17.15 9.355,-28.504"
                 style="fill:url(#linearGradient52);stroke:none"
                 id="path54" />
            </g>
          </g>
        </g>
      </g>
      <g
         id="g56">
        <g
           id="g58"
           clip-path="url(#clipPath62)">
          <g
             id="g64">
            <g
               id="g66">
              <path
                 d="m 175,209.727 c -0.371,-2.498 1.354,-4.822 3.852,-5.192 v 0 l 22.013,-3.264 1.225,8.28 c -11.267,2.124 -19.164,9.153 -24.513,17.568 v 0 z"
                 style="fill:url(#linearGradient74);stroke:none"
                 id="path76" />
            </g>
          </g>
        </g>
      </g>
      <g
         id="g78">
        <g
           id="g80"
           clip-path="url(#clipPath84)">
          <g
             id="g86">
            <g
               id="g88">
              <path
                 d="m 143.18,292.811 c -6.526,-14.545 -0.002,-31.689 14.545,-38.215 v 0 c 2.166,-0.972 4.39,-1.638 6.628,-2.046 v 0 c -1.305,4.007 -2.296,7.94 -3.018,11.631 v 0 c -9.015,4.412 -12.997,15.234 -8.858,24.46 v 0 c 4.226,9.419 15.327,13.645 24.746,9.419 v 0 c 5.682,-2.549 9.448,-7.601 10.629,-13.274 v 0 c 3.389,-1.759 6.951,-3.864 10.505,-6.312 v 0 c 1.025,11.911 -5.454,23.72 -16.962,28.883 v 0 c -3.831,1.719 -7.842,2.532 -11.792,2.532 v 0 c -11.048,0 -21.616,-6.363 -26.423,-17.078"
                 style="fill:url(#linearGradient96);stroke:none"
                 id="path98" />
            </g>
          </g>
        </g>
      </g>
      <g
         id="g100">
        <g
           id="g102"
           clip-path="url(#clipPath106)">
          <g
             id="g108">
            <g
               id="g110">
              <path
                 d="m 123.799,301.506 c -11.329,-25.25 -0.002,-55.01 25.249,-66.34 v 0 c 7.46,-3.346 15.312,-4.7 22.966,-4.314 v 0 c -2.15,3.695 -3.998,7.528 -5.572,11.378 v 0 c -4.298,0.342 -8.609,1.393 -12.763,3.257 v 0 c -19.561,8.776 -28.336,31.828 -19.56,51.39 v 0 c 8.775,19.561 31.829,28.335 51.389,19.559 v 0 c 16.773,-7.525 25.6,-25.545 22.247,-42.861 v 0 c 3.266,-2.624 6.439,-5.508 9.396,-8.647 v 0 c 8.176,24.186 -3.25,51.168 -27.012,61.829 v 0 c -6.651,2.983 -13.615,4.395 -20.472,4.395 v 0 c -19.178,0.001 -37.524,-11.045 -45.868,-29.646"
                 style="fill:url(#linearGradient118);stroke:none"
                 id="path120" />
            </g>
          </g>
        </g>
      </g>
      <g
         id="g122">
        <g
           id="g124"
           clip-path="url(#clipPath128)">
          <g
             id="g130">
            <g
               id="g132">
              <path
                 d="m 160.947,284.841 c -2.141,-4.772 -0.008,-10.375 4.764,-12.515 v 0 c 0.406,-0.183 0.82,-0.323 1.237,-0.445 v 0 c -0.07,3.602 -0.177,9.076 -0.177,9.076 v 0 0.001 l -10e-4,0.087 c -0.004,0.14 0.022,0.269 0.031,0.404 v 0 c 0.01,0.131 0.003,0.263 0.024,0.393 v 0 c 0.003,0.013 0.008,0.024 0.01,0.035 v 0 c 0.031,0.184 0.088,0.351 0.141,0.522 v 0 c 0.031,0.098 0.05,0.204 0.087,0.297 v 0 c 0.056,0.14 0.134,0.264 0.206,0.394 v 0 c 0.058,0.107 0.106,0.222 0.173,0.32 v 0 c 0.07,0.103 0.16,0.188 0.24,0.282 v 0 c 0.088,0.104 0.169,0.217 0.267,0.308 v 0 c 0.097,0.09 0.211,0.16 0.318,0.238 v 0 c 0.1,0.073 0.191,0.157 0.298,0.219 v 0 c 0.124,0.072 0.261,0.119 0.395,0.176 v 0 c 0.106,0.046 0.206,0.103 0.317,0.138 v 0 c 0.122,0.038 0.254,0.052 0.382,0.078 v 0 c 0.136,0.027 0.269,0.065 0.41,0.077 v 0 c 0.066,0.006 0.134,0.003 0.203,0 v 0 c 0.042,-10e-4 0.084,-0.003 0.126,-0.002 v 0 c 0.173,0 0.344,0.006 0.521,-0.016 v 0 c 0.004,-0.001 0.01,-0.001 0.015,-0.001 v 0 c 0.007,0.001 0.015,0.001 0.022,0 v 0 c 0.131,-0.017 0.256,-0.062 0.384,-0.091 v 0 c 0.132,-0.031 0.262,-0.044 0.395,-0.088 v 0 l 0.083,-0.027 h 10e-4 c 0,0 3.862,-1.252 7.123,-2.311 v 0 c -0.472,3.07 -2.435,5.848 -5.48,7.214 v 0 c -1.258,0.565 -2.575,0.832 -3.871,0.832 v 0 c -3.616,0 -7.068,-2.082 -8.644,-5.595"
                 style="fill:url(#linearGradient140);stroke:none"
                 id="path142" />
            </g>
          </g>
        </g>
      </g>
    </g>
  </g>
</svg>
