<?xml version="1.0" encoding="utf-8"?>
<svg version="1.1" id="svg2" width="449.3183" height="173.17467" xmlns="http://www.w3.org/2000/svg">
  <defs id="defs6">
    <clipPath clipPathUnits="userSpaceOnUse" id="clipPath150">
      <path d="M 0,435.276 H 365.89 V 0 H 0 Z" id="path148"/>
    </clipPath>
    <clipPath clipPathUnits="userSpaceOnUse" id="clipPath170">
      <path d="m 217.006,184.217 c -2.805,-1.227 -5.161,-2.936 -7.068,-5.129 v 0 c -1.907,-2.192 -3.365,-4.79 -4.373,-7.792 v 0 c -1.009,-3.003 -1.513,-6.258 -1.513,-9.764 v 0 c 0,-3.508 0.482,-6.752 1.447,-9.732 v 0 c 0.964,-2.981 2.422,-5.546 4.373,-7.694 v 0 c 1.95,-2.148 4.372,-3.825 7.266,-5.03 v 0 c 2.893,-1.205 6.268,-1.808 10.126,-1.808 v 0 c 1.797,0 3.956,0.154 6.477,0.46 v 0 c 2.521,0.306 5.074,0.942 7.661,1.907 v 0 23.935 c -1.009,0.175 -2.039,0.306 -3.09,0.395 v 0 c -1.053,0.087 -1.951,0.131 -2.697,0.131 v 0 c -0.789,0 -1.644,-0.044 -2.565,-0.131 v 0 c -0.92,-0.089 -1.971,-0.22 -3.156,-0.395 v 0 -15.781 c -0.658,-0.131 -1.403,-0.197 -2.235,-0.197 v 0 c -3.726,0 -6.533,1.15 -8.416,3.451 v 0 c -1.886,2.302 -2.828,5.797 -2.828,10.489 v 0 c 0,4.734 0.964,8.295 2.893,10.686 v 0 c 1.928,2.388 4.669,3.583 8.219,3.583 v 0 c 0.744,0 1.446,-0.034 2.104,-0.099 v 0 c 0.658,-0.066 1.316,-0.164 1.973,-0.296 v 0 c 0.658,-0.132 1.348,-0.306 2.071,-0.525 v 0 c 0.724,-0.221 1.524,-0.484 2.4,-0.79 v 0 c 0.614,1.183 1.206,2.63 1.776,4.34 v 0 c 0.569,1.709 0.897,3.463 0.986,5.261 v 0 c -2.28,0.963 -4.373,1.599 -6.279,1.906 v 0 c -1.907,0.307 -3.913,0.461 -6.017,0.461 v 0 c -3.551,0 -6.73,-0.615 -9.535,-1.842" id="path168"/>
    </clipPath>
    <clipPath clipPathUnits="userSpaceOnUse" id="clipPath192">
      <path d="m 256.327,171.494 c -2.104,-0.855 -3.868,-2.072 -5.293,-3.649 v 0 c -1.424,-1.579 -2.498,-3.475 -3.222,-5.688 v 0 c -0.723,-2.214 -1.084,-4.659 -1.084,-7.332 v 0 c 0,-2.631 0.361,-5.031 1.084,-7.201 v 0 c 0.724,-2.17 1.798,-4.034 3.222,-5.589 v 0 c 1.425,-1.557 3.189,-2.751 5.293,-3.584 v 0 c 2.105,-0.832 4.538,-1.249 7.299,-1.249 v 0 c 2.805,0 5.262,0.417 7.365,1.249 v 0 c 2.105,0.833 3.868,2.027 5.294,3.584 v 0 c 1.423,1.555 2.498,3.419 3.221,5.589 v 0 c 0.723,2.17 1.085,4.57 1.085,7.201 v 0 c 0,2.673 -0.362,5.118 -1.085,7.332 v 0 c -0.723,2.213 -1.798,4.109 -3.221,5.688 v 0 c -1.426,1.577 -3.189,2.794 -5.294,3.649 v 0 c -2.103,0.855 -4.56,1.282 -7.365,1.282 v 0 c -2.761,0 -5.194,-0.427 -7.299,-1.282 m 3.026,-23.048 c -0.921,1.49 -1.382,3.616 -1.382,6.379 v 0 c 0,2.805 0.461,4.953 1.382,6.444 v 0 c 0.92,1.49 2.344,2.235 4.273,2.235 v 0 c 1.929,0 3.364,-0.745 4.308,-2.235 v 0 c 0.942,-1.491 1.413,-3.639 1.413,-6.444 v 0 c 0,-2.763 -0.471,-4.889 -1.413,-6.379 v 0 c -0.944,-1.49 -2.379,-2.236 -4.308,-2.236 v 0 c -1.929,0 -3.353,0.746 -4.273,2.236" id="path190"/>
    </clipPath>
    <clipPath clipPathUnits="userSpaceOnUse" id="clipPath214">
      <path d="M 0,435.276 H 365.89 V 0 H 0 Z" id="path212"/>
    </clipPath>
  </defs>
  <g style="fill: rgb(255, 255, 255);" transform="matrix(1.992446, 0, 0, -1.992446, -503.729095, 619.926086)" id="g1353">
    <g style="fill:#ffffff" id="g144" transform="translate(168.30057,121.12055)">
      <g style="fill:#ffffff" id="g146" clip-path="url(#clipPath150)">
        <g style="fill:#ffffff" id="g152" transform="translate(85.298,185.2701)">
          <path d="M 0,0 C 0.306,0.042 0.712,0.076 1.216,0.098 1.721,0.12 2.147,0.131 2.499,0.131 2.849,0.131 3.266,0.12 3.748,0.098 4.23,0.076 4.625,0.042 4.933,0 L 27.552,-39.585 V 0 c 0.306,0.042 0.646,0.076 1.019,0.098 0.372,0.022 0.757,0.033 1.151,0.033 0.351,0 0.733,-0.011 1.151,-0.033 C 31.289,0.076 31.651,0.042 31.958,0 v -47.279 c -0.264,-0.043 -0.647,-0.076 -1.151,-0.098 -0.504,-0.022 -0.953,-0.033 -1.349,-0.033 -0.35,0 -0.767,0.011 -1.249,0.033 -0.482,0.022 -0.877,0.055 -1.183,0.098 L 4.406,-8.022 v -39.257 c -0.307,-0.043 -0.648,-0.076 -1.02,-0.098 -0.372,-0.022 -0.755,-0.033 -1.15,-0.033 -0.439,0 -0.855,0.011 -1.249,0.033 -0.395,0.022 -0.724,0.055 -0.987,0.098 z" style="fill:#ffffff;fill-opacity:1;fill-rule:nonzero;stroke:none" id="path154"/>
        </g>
        <g style="fill:#ffffff" id="g156" transform="translate(147.4337,157.7179)">
          <path d="m 0,0 c 0,1.358 -0.175,2.696 -0.525,4.011 -0.352,1.315 -0.899,2.466 -1.644,3.452 -0.747,0.987 -1.711,1.786 -2.894,2.401 -1.183,0.613 -2.609,0.92 -4.274,0.92 -3.069,0 -5.457,-0.943 -7.167,-2.827 -1.71,-1.886 -2.74,-4.538 -3.091,-7.957 z m -19.727,-3.616 c 0,-4.472 1.03,-7.76 3.091,-9.864 2.06,-2.104 5.15,-3.156 9.271,-3.156 1.666,0 3.211,0.142 4.636,0.428 1.424,0.284 2.817,0.667 4.176,1.15 0.219,-0.483 0.394,-1.075 0.526,-1.775 0.131,-0.702 0.218,-1.338 0.263,-1.907 -1.272,-0.571 -2.761,-1.009 -4.471,-1.316 -1.711,-0.306 -3.574,-0.46 -5.589,-0.46 -2.894,0 -5.382,0.428 -7.464,1.283 -2.082,0.855 -3.793,2.048 -5.129,3.583 -1.338,1.534 -2.324,3.364 -2.958,5.491 -0.637,2.125 -0.954,4.46 -0.954,7.003 0,2.454 0.296,4.756 0.888,6.904 0.591,2.148 1.489,4.033 2.695,5.655 1.206,1.622 2.751,2.894 4.636,3.814 1.884,0.921 4.143,1.381 6.773,1.381 2.192,0 4.142,-0.373 5.852,-1.118 1.71,-0.746 3.145,-1.787 4.307,-3.123 C 1.983,9.019 2.86,7.419 3.452,5.557 4.044,3.693 4.34,1.666 4.34,-0.526 4.34,-0.92 4.328,-1.425 4.308,-2.038 4.285,-2.652 4.252,-3.179 4.209,-3.616 Z" style="fill:#ffffff;fill-opacity:1;fill-rule:nonzero;stroke:none" id="path158"/>
        </g>
        <g style="fill:#ffffff" id="g160" transform="translate(154.0773,171.5265)">
          <path d="M 0,0 C 0.263,0.043 0.602,0.077 1.02,0.099 1.436,0.12 1.862,0.132 2.302,0.132 2.652,0.132 3.079,0.12 3.584,0.099 4.087,0.077 4.471,0.043 4.734,0 L 12.165,-28.538 20.45,0 c 0.351,0.043 0.734,0.077 1.151,0.099 0.416,0.021 0.865,0.033 1.348,0.033 h 1.085 c 0.371,0 0.733,-0.045 1.085,-0.132 L 33.404,-28.144 40.835,0 c 0.263,0.043 0.58,0.077 0.953,0.099 0.372,0.021 0.733,0.033 1.085,0.033 0.35,0 0.745,-0.012 1.184,-0.033 C 44.494,0.077 44.846,0.043 45.108,0 l -9.665,-33.535 c -0.79,-0.132 -1.557,-0.198 -2.302,-0.198 -0.833,0 -1.6,0.066 -2.302,0.198 l -8.087,27.748 -8.483,-27.748 c -0.789,-0.132 -1.557,-0.198 -2.301,-0.198 -0.834,0 -1.601,0.066 -2.301,0.198 z" style="fill:#ffffff;fill-opacity:1;fill-rule:nonzero;stroke:none" id="path162"/>
        </g>
      </g>
    </g>
    <g style="fill:#ffffff" id="g164" transform="translate(168.30057,121.12055)">
      <g style="fill:#ffffff" id="g166" clip-path="url(#clipPath170)">
        <g style="fill:#ffffff" id="g172">
          <g style="fill:#ffffff" id="g174">
            <path d="m 217.006,184.217 c -2.805,-1.227 -5.161,-2.936 -7.068,-5.129 v 0 c -1.907,-2.192 -3.365,-4.79 -4.373,-7.792 v 0 c -1.009,-3.003 -1.513,-6.258 -1.513,-9.764 v 0 c 0,-3.508 0.482,-6.752 1.447,-9.732 v 0 c 0.964,-2.981 2.422,-5.546 4.373,-7.694 v 0 c 1.95,-2.148 4.372,-3.825 7.266,-5.03 v 0 c 2.893,-1.205 6.268,-1.808 10.126,-1.808 v 0 c 1.797,0 3.956,0.154 6.477,0.46 v 0 c 2.521,0.306 5.074,0.942 7.661,1.907 v 0 23.935 c -1.009,0.175 -2.039,0.306 -3.09,0.395 v 0 c -1.053,0.087 -1.951,0.131 -2.697,0.131 v 0 c -0.789,0 -1.644,-0.044 -2.565,-0.131 v 0 c -0.92,-0.089 -1.971,-0.22 -3.156,-0.395 v 0 -15.781 c -0.658,-0.131 -1.403,-0.197 -2.235,-0.197 v 0 c -3.726,0 -6.533,1.15 -8.416,3.451 v 0 c -1.886,2.302 -2.828,5.797 -2.828,10.489 v 0 c 0,4.734 0.964,8.295 2.893,10.686 v 0 c 1.928,2.388 4.669,3.583 8.219,3.583 v 0 c 0.744,0 1.446,-0.034 2.104,-0.099 v 0 c 0.658,-0.066 1.316,-0.164 1.973,-0.296 v 0 c 0.658,-0.132 1.348,-0.306 2.071,-0.525 v 0 c 0.724,-0.221 1.524,-0.484 2.4,-0.79 v 0 c 0.614,1.183 1.206,2.63 1.776,4.34 v 0 c 0.569,1.709 0.897,3.463 0.986,5.261 v 0 c -2.28,0.963 -4.373,1.599 -6.279,1.906 v 0 c -1.907,0.307 -3.913,0.461 -6.017,0.461 v 0 c -3.551,0 -6.73,-0.615 -9.535,-1.842" style="fill:#ffffff;stroke:none" id="path184"/>
          </g>
        </g>
      </g>
    </g>
    <g style="fill:#ffffff" id="g186" transform="translate(168.30057,121.12055)">
      <g style="fill:#ffffff" id="g188" clip-path="url(#clipPath192)">
        <g style="fill:#ffffff" id="g194">
          <g style="fill:#ffffff" id="g196">
            <path d="m 256.327,171.494 c -2.104,-0.855 -3.868,-2.072 -5.293,-3.649 v 0 c -1.424,-1.579 -2.498,-3.475 -3.222,-5.688 v 0 c -0.723,-2.214 -1.084,-4.659 -1.084,-7.332 v 0 c 0,-2.631 0.361,-5.031 1.084,-7.201 v 0 c 0.724,-2.17 1.798,-4.034 3.222,-5.589 v 0 c 1.425,-1.557 3.189,-2.751 5.293,-3.584 v 0 c 2.105,-0.832 4.538,-1.249 7.299,-1.249 v 0 c 2.805,0 5.262,0.417 7.365,1.249 v 0 c 2.105,0.833 3.868,2.027 5.294,3.584 v 0 c 1.423,1.555 2.498,3.419 3.221,5.589 v 0 c 0.723,2.17 1.085,4.57 1.085,7.201 v 0 c 0,2.673 -0.362,5.118 -1.085,7.332 v 0 c -0.723,2.213 -1.798,4.109 -3.221,5.688 v 0 c -1.426,1.577 -3.189,2.794 -5.294,3.649 v 0 c -2.103,0.855 -4.56,1.282 -7.365,1.282 v 0 c -2.761,0 -5.194,-0.427 -7.299,-1.282 m 3.026,-23.048 c -0.921,1.49 -1.382,3.616 -1.382,6.379 v 0 c 0,2.805 0.461,4.953 1.382,6.444 v 0 c 0.92,1.49 2.344,2.235 4.273,2.235 v 0 c 1.929,0 3.364,-0.745 4.308,-2.235 v 0 c 0.942,-1.491 1.413,-3.639 1.413,-6.444 v 0 c 0,-2.763 -0.471,-4.889 -1.413,-6.379 v 0 c -0.944,-1.49 -2.379,-2.236 -4.308,-2.236 v 0 c -1.929,0 -3.353,0.746 -4.273,2.236" style="fill:#ffffff;stroke:none" id="path206"/>
          </g>
        </g>
      </g>
    </g>
  </g>
  <g style="fill: rgb(255, 255, 255);" transform="matrix(1.992446, 0, 0, -1.992446, -275.840546, 378.599915)" id="g208">
    <g style="fill:#ffffff" clip-path="url(#clipPath214)" id="g210">
      <g style="fill:#ffffff" transform="translate(139.3683,120.7447)" id="g216">
        <path id="path218" style="fill:#ffffff;fill-opacity:1;fill-rule:nonzero;stroke:none" d="m 0,0 c -0.097,-0.1 -0.146,-0.223 -0.146,-0.37 v -1.186 h 2.385 v -14.579 c 0.016,-0.065 0.053,-0.142 0.11,-0.231 0.056,-0.089 0.182,-0.134 0.377,-0.134 H 4.04 v 14.531 c 0,0.114 0.037,0.21 0.109,0.291 0.074,0.081 0.175,0.122 0.305,0.122 h 1.338 c 0.276,0 0.483,0.049 0.621,0.148 0.138,0.099 0.231,0.206 0.28,0.322 0.032,0.065 0.109,0.233 0.231,0.505 0.122,0.271 0.231,0.515 0.328,0.729 H 0.365 C 0.219,0.148 0.097,0.099 0,0"/>
      </g>
      <g style="fill:#ffffff" transform="translate(154.4821,105.9493)" id="g220">
        <path id="path222" style="fill:#ffffff;fill-opacity:1;fill-rule:nonzero;stroke:none" d="m 0,0 h -3.578 v 5.768 c 0,0.113 0.041,0.211 0.122,0.292 0.081,0.081 0.179,0.122 0.292,0.122 l 0.706,-0.025 c 0.276,0 0.482,0.048 0.621,0.144 0.137,0.095 0.231,0.208 0.279,0.336 0.033,0.016 0.106,0.088 0.22,0.216 0.113,0.127 0.214,0.267 0.304,0.419 0.089,0.153 0.146,0.289 0.17,0.409 0.025,0.12 -0.02,0.18 -0.134,0.18 h -2.58 v 4.987 c 0,0.114 0.041,0.208 0.122,0.281 0.081,0.074 0.179,0.111 0.292,0.111 h 1.388 c 0.275,0 0.482,0.052 0.62,0.158 0.138,0.105 0.231,0.215 0.28,0.328 0.032,0.017 0.101,0.09 0.207,0.22 0.105,0.13 0.203,0.267 0.292,0.413 0.089,0.146 0.149,0.28 0.182,0.402 0.033,0.121 -0.008,0.183 -0.121,0.183 H -4.77 c -0.13,0 -0.248,-0.045 -0.353,-0.135 -0.106,-0.089 -0.158,-0.206 -0.158,-0.352 V -1.704 h 3.821 c 0.275,0 0.482,0.049 0.621,0.146 0.137,0.097 0.231,0.203 0.279,0.317 0.033,0.015 0.102,0.089 0.207,0.219 0.105,0.129 0.203,0.271 0.292,0.425 0.089,0.155 0.15,0.292 0.183,0.414 C 0.154,-0.062 0.113,0 0,0"/>
      </g>
      <g style="fill:#ffffff" transform="translate(160.445,120.9899)" id="g224">
        <path id="path226" style="fill:#ffffff;fill-opacity:1;fill-rule:nonzero;stroke:none" d="M 0,0 H -1.071 C -1.655,0 -2.15,-0.207 -2.555,-0.62 -2.961,-1.034 -3.164,-1.533 -3.164,-2.117 v -6.304 -0.025 -6.303 c 0,-0.584 0.203,-1.083 0.609,-1.497 0.405,-0.414 0.9,-0.621 1.484,-0.621 H 0 c 0.568,0.034 1.05,0.252 1.448,0.658 0.398,0.405 0.596,0.892 0.596,1.46 v 3.992 c -0.211,-0.098 -0.45,-0.207 -0.717,-0.329 -0.268,-0.122 -0.443,-0.199 -0.524,-0.231 -0.114,-0.065 -0.219,-0.167 -0.316,-0.305 -0.097,-0.137 -0.146,-0.344 -0.146,-0.62 v -2.239 c 0,-0.243 -0.09,-0.455 -0.268,-0.633 -0.178,-0.178 -0.389,-0.267 -0.633,-0.267 -0.259,0 -0.474,0.089 -0.645,0.267 -0.17,0.178 -0.255,0.39 -0.255,0.633 v 6.035 0.025 6.036 c 0,0.243 0.085,0.442 0.255,0.596 0.171,0.154 0.386,0.231 0.645,0.231 0.244,0 0.455,-0.077 0.633,-0.231 0.178,-0.154 0.268,-0.353 0.268,-0.596 v -3.723 c 0.227,0.097 0.47,0.207 0.73,0.328 0.259,0.122 0.429,0.199 0.511,0.231 0.113,0.065 0.219,0.166 0.316,0.305 0.098,0.138 0.146,0.344 0.146,0.62 v 2.507 c 0,0.567 -0.198,1.055 -0.596,1.46 C 1.05,-0.252 0.568,-0.032 0,0"/>
      </g>
      <g style="fill:#ffffff" transform="translate(170.3747,111.3028)" id="g228">
        <path id="path230" style="fill:#ffffff;fill-opacity:1;fill-rule:nonzero;stroke:none" d="M 0,0 -1.801,8.665 C -1.85,8.909 -1.943,9.124 -2.081,9.31 -2.219,9.497 -2.531,9.59 -3.018,9.59 H -3.796 V -7.058 h 1.703 v 9.297 l 1.837,-8.225 c 0.016,-0.082 0.045,-0.183 0.086,-0.305 0.041,-0.122 0.102,-0.239 0.184,-0.353 0.081,-0.114 0.196,-0.21 0.342,-0.292 0.147,-0.082 0.335,-0.122 0.564,-0.122 H 1.704 V 9.59 H 0 Z"/>
      </g>
      <g style="fill:#ffffff" transform="translate(180.5968,106.5333)" id="g232">
        <path id="path234" style="fill:#ffffff;fill-opacity:1;fill-rule:nonzero;stroke:none" d="m 0,0 c 0,-0.26 -0.089,-0.479 -0.268,-0.657 -0.179,-0.179 -0.398,-0.268 -0.657,-0.268 h -0.243 c -0.26,0.016 -0.475,0.11 -0.645,0.279 C -1.984,-0.475 -2.069,-0.26 -2.069,0 v 12.047 c 0,0.26 0.085,0.475 0.256,0.645 0.17,0.171 0.377,0.264 0.62,0.28 h 0.268 c 0.259,0 0.478,-0.09 0.657,-0.267 C -0.089,12.526 0,12.307 0,12.047 Z m -0.341,14.457 h -1.314 c -0.584,0 -1.083,-0.207 -1.497,-0.621 -0.414,-0.414 -0.62,-0.913 -0.62,-1.497 V -0.316 c 0,-0.584 0.206,-1.08 0.62,-1.486 0.414,-0.405 0.913,-0.608 1.497,-0.608 h 1.314 c 0.276,0.016 0.539,0.082 0.791,0.195 0.251,0.113 0.47,0.264 0.657,0.45 0.186,0.187 0.332,0.402 0.438,0.645 0.105,0.243 0.159,0.512 0.159,0.804 v 12.655 c 0,0.568 -0.204,1.055 -0.609,1.46 -0.406,0.406 -0.885,0.625 -1.436,0.658"/>
      </g>
      <g style="fill:#ffffff" transform="translate(188.7985,120.3815)" id="g236">
        <path id="path238" style="fill:#ffffff;fill-opacity:1;fill-rule:nonzero;stroke:none" d="m 0,0 c 0,0.146 -0.049,0.268 -0.146,0.365 -0.098,0.098 -0.219,0.147 -0.365,0.147 h -1.193 v -16.648 h 4.089 c 0.276,0 0.483,0.049 0.621,0.146 0.137,0.097 0.239,0.202 0.304,0.317 0.032,0.08 0.109,0.251 0.231,0.51 0.122,0.259 0.223,0.503 0.304,0.731 H 0 Z"/>
      </g>
      <g style="fill:#ffffff" transform="translate(198.4367,106.5333)" id="g240">
        <path id="path242" style="fill:#ffffff;fill-opacity:1;fill-rule:nonzero;stroke:none" d="m 0,0 c 0,-0.26 -0.089,-0.479 -0.268,-0.657 -0.179,-0.179 -0.398,-0.268 -0.657,-0.268 h -0.243 c -0.26,0.016 -0.475,0.11 -0.645,0.279 C -1.984,-0.475 -2.069,-0.26 -2.069,0 v 12.047 c 0,0.26 0.085,0.475 0.256,0.645 0.17,0.171 0.377,0.264 0.62,0.28 h 0.268 c 0.259,0 0.478,-0.09 0.657,-0.267 C -0.089,12.526 0,12.307 0,12.047 Z m -0.341,14.457 h -1.314 c -0.584,0 -1.083,-0.207 -1.497,-0.621 -0.414,-0.414 -0.62,-0.913 -0.62,-1.497 V -0.316 c 0,-0.584 0.206,-1.08 0.62,-1.486 0.414,-0.405 0.913,-0.608 1.497,-0.608 h 1.314 c 0.276,0.016 0.539,0.082 0.791,0.195 0.251,0.113 0.47,0.264 0.657,0.45 0.186,0.187 0.332,0.402 0.438,0.645 0.105,0.243 0.159,0.512 0.159,0.804 v 12.655 c 0,0.568 -0.204,1.055 -0.609,1.46 -0.406,0.406 -0.885,0.625 -1.436,0.658"/>
      </g>
      <g style="fill:#ffffff" transform="translate(208.0246,120.9899)" id="g244">
        <path id="path246" style="fill:#ffffff;fill-opacity:1;fill-rule:nonzero;stroke:none" d="M 0,0 H -1.071 C -1.655,0 -2.15,-0.207 -2.556,-0.62 -2.961,-1.034 -3.164,-1.533 -3.164,-2.117 v -12.632 c 0,-0.584 0.203,-1.083 0.608,-1.497 0.406,-0.414 0.901,-0.621 1.485,-0.621 H 0 c 0.568,0.034 1.05,0.252 1.448,0.658 0.398,0.405 0.596,0.892 0.596,1.46 v 6.011 c 0,0.324 -0.077,0.556 -0.231,0.695 -0.154,0.137 -0.353,0.206 -0.596,0.206 h -2.142 l 0.584,-1.168 c 0.065,-0.13 0.13,-0.232 0.195,-0.304 0.064,-0.073 0.13,-0.126 0.195,-0.158 0.064,-0.049 0.138,-0.074 0.219,-0.074 h 0.073 v -4.94 c 0,-0.243 -0.09,-0.455 -0.268,-0.633 -0.179,-0.178 -0.389,-0.267 -0.633,-0.267 -0.259,0 -0.474,0.089 -0.645,0.267 -0.17,0.178 -0.255,0.39 -0.255,0.633 v 12.096 c 0,0.243 0.085,0.454 0.255,0.633 0.171,0.178 0.386,0.268 0.645,0.268 0.244,0 0.454,-0.09 0.633,-0.268 0.178,-0.179 0.268,-0.39 0.268,-0.633 v -2.288 c 0.21,0.098 0.45,0.207 0.718,0.329 0.267,0.121 0.441,0.198 0.523,0.231 0.113,0.065 0.219,0.167 0.316,0.304 0.098,0.138 0.146,0.345 0.146,0.621 v 1.071 c 0,0.567 -0.198,1.055 -0.596,1.46 C 1.05,-0.252 0.568,-0.032 0,0"/>
      </g>
      <g style="fill:#ffffff" transform="translate(215.3752,120.8932)" id="g248">
        <path id="path250" style="fill:#ffffff;fill-opacity:1;fill-rule:nonzero;stroke:none" d="m 0,0 h -1.022 v -16.283 c 0.016,-0.082 0.052,-0.162 0.109,-0.243 0.057,-0.082 0.183,-0.122 0.377,-0.122 h 1.217 v 15.991 c 0,0.129 -0.049,0.271 -0.146,0.426 C 0.438,-0.078 0.259,0 0,0"/>
      </g>
      <g style="fill:#ffffff" transform="translate(224.2819,119.9918)" id="g252">
        <path id="path254" style="fill:#ffffff;fill-opacity:1;fill-rule:nonzero;stroke:none" d="m 0,0 c -0.033,0.228 -0.102,0.435 -0.207,0.621 -0.105,0.187 -0.345,0.28 -0.718,0.28 h -0.9 l -2.531,-16.648 h 1.874 l 1.509,11.488 1.484,-11.488 h 1.874 z"/>
      </g>
      <g style="fill:#ffffff" transform="translate(139.3683,120.7447)" id="g256">
        <path id="path258" style="fill:#ffffff;fill-opacity:1;fill-rule:nonzero;stroke:none" d="m 0,0 c -0.097,-0.1 -0.146,-0.223 -0.146,-0.37 v -1.186 h 2.385 v -14.579 c 0.016,-0.065 0.053,-0.142 0.11,-0.231 0.056,-0.089 0.182,-0.134 0.377,-0.134 H 4.04 v 14.531 c 0,0.114 0.037,0.21 0.109,0.291 0.074,0.081 0.175,0.122 0.305,0.122 h 1.338 c 0.276,0 0.483,0.049 0.621,0.148 0.138,0.099 0.231,0.206 0.28,0.322 0.032,0.065 0.109,0.233 0.231,0.505 0.122,0.271 0.231,0.515 0.328,0.729 H 0.365 C 0.219,0.148 0.097,0.099 0,0"/>
      </g>
      <g style="fill:#ffffff" transform="translate(154.4821,105.9493)" id="g260">
        <path id="path262" style="fill:#ffffff;fill-opacity:1;fill-rule:nonzero;stroke:none" d="m 0,0 h -3.578 v 5.768 c 0,0.113 0.041,0.211 0.122,0.292 0.081,0.081 0.179,0.122 0.292,0.122 l 0.706,-0.025 c 0.276,0 0.482,0.048 0.621,0.144 0.137,0.095 0.231,0.208 0.279,0.336 0.033,0.016 0.106,0.088 0.22,0.216 0.113,0.127 0.214,0.267 0.304,0.419 0.089,0.153 0.146,0.289 0.17,0.409 0.025,0.12 -0.02,0.18 -0.134,0.18 h -2.58 v 4.987 c 0,0.114 0.041,0.208 0.122,0.281 0.081,0.074 0.179,0.111 0.292,0.111 h 1.388 c 0.275,0 0.482,0.052 0.62,0.158 0.138,0.105 0.231,0.215 0.28,0.328 0.032,0.017 0.101,0.09 0.207,0.22 0.105,0.13 0.203,0.267 0.292,0.413 0.089,0.146 0.149,0.28 0.182,0.402 0.033,0.121 -0.008,0.183 -0.121,0.183 H -4.77 c -0.13,0 -0.248,-0.045 -0.353,-0.135 -0.106,-0.089 -0.158,-0.206 -0.158,-0.352 V -1.704 h 3.821 c 0.275,0 0.482,0.049 0.621,0.146 0.137,0.097 0.231,0.203 0.279,0.317 0.033,0.015 0.102,0.089 0.207,0.219 0.105,0.129 0.203,0.271 0.292,0.425 0.089,0.155 0.15,0.292 0.183,0.414 C 0.154,-0.062 0.113,0 0,0"/>
      </g>
      <g style="fill:#ffffff" transform="translate(160.445,120.9899)" id="g264">
        <path id="path266" style="fill:#ffffff;fill-opacity:1;fill-rule:nonzero;stroke:none" d="M 0,0 H -1.071 C -1.655,0 -2.15,-0.207 -2.555,-0.62 -2.961,-1.034 -3.164,-1.533 -3.164,-2.117 v -6.304 -0.025 -6.303 c 0,-0.584 0.203,-1.083 0.609,-1.497 0.405,-0.414 0.9,-0.621 1.484,-0.621 H 0 c 0.568,0.034 1.05,0.252 1.448,0.658 0.398,0.405 0.596,0.892 0.596,1.46 v 3.992 c -0.211,-0.098 -0.45,-0.207 -0.717,-0.329 -0.268,-0.122 -0.443,-0.199 -0.524,-0.231 -0.114,-0.065 -0.219,-0.167 -0.316,-0.305 -0.097,-0.137 -0.146,-0.344 -0.146,-0.62 v -2.239 c 0,-0.243 -0.09,-0.455 -0.268,-0.633 -0.178,-0.178 -0.389,-0.267 -0.633,-0.267 -0.259,0 -0.474,0.089 -0.645,0.267 -0.17,0.178 -0.255,0.39 -0.255,0.633 v 6.035 0.025 6.036 c 0,0.243 0.085,0.442 0.255,0.596 0.171,0.154 0.386,0.231 0.645,0.231 0.244,0 0.455,-0.077 0.633,-0.231 0.178,-0.154 0.268,-0.353 0.268,-0.596 v -3.723 c 0.227,0.097 0.47,0.207 0.73,0.328 0.259,0.122 0.429,0.199 0.511,0.231 0.113,0.065 0.219,0.166 0.316,0.305 0.098,0.138 0.146,0.344 0.146,0.62 v 2.507 c 0,0.567 -0.198,1.055 -0.596,1.46 C 1.05,-0.252 0.568,-0.032 0,0"/>
      </g>
      <g style="fill:#ffffff" transform="translate(170.3747,111.3028)" id="g268">
        <path id="path270" style="fill:#ffffff;fill-opacity:1;fill-rule:nonzero;stroke:none" d="M 0,0 -1.801,8.665 C -1.85,8.909 -1.943,9.124 -2.081,9.31 -2.219,9.497 -2.531,9.59 -3.018,9.59 H -3.796 V -7.058 h 1.703 v 9.297 l 1.837,-8.225 c 0.016,-0.082 0.045,-0.183 0.086,-0.305 0.041,-0.122 0.102,-0.239 0.184,-0.353 0.081,-0.114 0.196,-0.21 0.342,-0.292 0.147,-0.082 0.335,-0.122 0.564,-0.122 H 1.704 V 9.59 H 0 Z"/>
      </g>
      <g style="fill:#ffffff" transform="translate(180.5968,106.5333)" id="g272">
        <path id="path274" style="fill:#ffffff;fill-opacity:1;fill-rule:nonzero;stroke:none" d="m 0,0 c 0,-0.26 -0.089,-0.479 -0.268,-0.657 -0.179,-0.179 -0.398,-0.268 -0.657,-0.268 h -0.243 c -0.26,0.016 -0.475,0.11 -0.645,0.279 C -1.984,-0.475 -2.069,-0.26 -2.069,0 v 12.047 c 0,0.26 0.085,0.475 0.256,0.645 0.17,0.171 0.377,0.264 0.62,0.28 h 0.268 c 0.259,0 0.478,-0.09 0.657,-0.267 C -0.089,12.526 0,12.307 0,12.047 Z m -0.341,14.457 h -1.314 c -0.584,0 -1.083,-0.207 -1.497,-0.621 -0.414,-0.414 -0.62,-0.913 -0.62,-1.497 V -0.316 c 0,-0.584 0.206,-1.08 0.62,-1.486 0.414,-0.405 0.913,-0.608 1.497,-0.608 h 1.314 c 0.276,0.016 0.539,0.082 0.791,0.195 0.251,0.113 0.47,0.264 0.657,0.45 0.186,0.187 0.332,0.402 0.438,0.645 0.105,0.243 0.159,0.512 0.159,0.804 v 12.655 c 0,0.568 -0.204,1.055 -0.609,1.46 -0.406,0.406 -0.885,0.625 -1.436,0.658"/>
      </g>
      <g style="fill:#ffffff" transform="translate(188.7985,120.3815)" id="g276">
        <path id="path278" style="fill:#ffffff;fill-opacity:1;fill-rule:nonzero;stroke:none" d="m 0,0 c 0,0.146 -0.049,0.268 -0.146,0.365 -0.098,0.098 -0.219,0.147 -0.365,0.147 h -1.193 v -16.648 h 4.089 c 0.276,0 0.483,0.049 0.621,0.146 0.137,0.097 0.239,0.202 0.304,0.317 0.032,0.08 0.109,0.251 0.231,0.51 0.122,0.259 0.223,0.503 0.304,0.731 H 0 Z"/>
      </g>
      <g style="fill:#ffffff" transform="translate(198.4367,106.5333)" id="g280">
        <path id="path282" style="fill:#ffffff;fill-opacity:1;fill-rule:nonzero;stroke:none" d="m 0,0 c 0,-0.26 -0.089,-0.479 -0.268,-0.657 -0.179,-0.179 -0.398,-0.268 -0.657,-0.268 h -0.243 c -0.26,0.016 -0.475,0.11 -0.645,0.279 C -1.984,-0.475 -2.069,-0.26 -2.069,0 v 12.047 c 0,0.26 0.085,0.475 0.256,0.645 0.17,0.171 0.377,0.264 0.62,0.28 h 0.268 c 0.259,0 0.478,-0.09 0.657,-0.267 C -0.089,12.526 0,12.307 0,12.047 Z m -0.341,14.457 h -1.314 c -0.584,0 -1.083,-0.207 -1.497,-0.621 -0.414,-0.414 -0.62,-0.913 -0.62,-1.497 V -0.316 c 0,-0.584 0.206,-1.08 0.62,-1.486 0.414,-0.405 0.913,-0.608 1.497,-0.608 h 1.314 c 0.276,0.016 0.539,0.082 0.791,0.195 0.251,0.113 0.47,0.264 0.657,0.45 0.186,0.187 0.332,0.402 0.438,0.645 0.105,0.243 0.159,0.512 0.159,0.804 v 12.655 c 0,0.568 -0.204,1.055 -0.609,1.46 -0.406,0.406 -0.885,0.625 -1.436,0.658"/>
      </g>
      <g style="fill:#ffffff" transform="translate(208.0246,120.9899)" id="g284">
        <path id="path286" style="fill:#ffffff;fill-opacity:1;fill-rule:nonzero;stroke:none" d="M 0,0 H -1.071 C -1.655,0 -2.15,-0.207 -2.556,-0.62 -2.961,-1.034 -3.164,-1.533 -3.164,-2.117 v -12.632 c 0,-0.584 0.203,-1.083 0.608,-1.497 0.406,-0.414 0.901,-0.621 1.485,-0.621 H 0 c 0.568,0.034 1.05,0.252 1.448,0.658 0.398,0.405 0.596,0.892 0.596,1.46 v 6.011 c 0,0.324 -0.077,0.556 -0.231,0.695 -0.154,0.137 -0.353,0.206 -0.596,0.206 h -2.142 l 0.584,-1.168 c 0.065,-0.13 0.13,-0.232 0.195,-0.304 0.064,-0.073 0.13,-0.126 0.195,-0.158 0.064,-0.049 0.138,-0.074 0.219,-0.074 h 0.073 v -4.94 c 0,-0.243 -0.09,-0.455 -0.268,-0.633 -0.179,-0.178 -0.389,-0.267 -0.633,-0.267 -0.259,0 -0.474,0.089 -0.645,0.267 -0.17,0.178 -0.255,0.39 -0.255,0.633 v 12.096 c 0,0.243 0.085,0.454 0.255,0.633 0.171,0.178 0.386,0.268 0.645,0.268 0.244,0 0.454,-0.09 0.633,-0.268 0.178,-0.179 0.268,-0.39 0.268,-0.633 v -2.288 c 0.21,0.098 0.45,0.207 0.718,0.329 0.267,0.121 0.441,0.198 0.523,0.231 0.113,0.065 0.219,0.167 0.316,0.304 0.098,0.138 0.146,0.345 0.146,0.621 v 1.071 c 0,0.567 -0.198,1.055 -0.596,1.46 C 1.05,-0.252 0.568,-0.032 0,0"/>
      </g>
      <g style="fill:#ffffff" transform="translate(215.3752,120.8932)" id="g288">
        <path id="path290" style="fill:#ffffff;fill-opacity:1;fill-rule:nonzero;stroke:none" d="m 0,0 h -1.022 v -16.283 c 0.016,-0.082 0.052,-0.162 0.109,-0.243 0.057,-0.082 0.183,-0.122 0.377,-0.122 h 1.217 v 15.991 c 0,0.129 -0.049,0.271 -0.146,0.426 C 0.438,-0.078 0.259,0 0,0"/>
      </g>
      <g style="fill:#ffffff" transform="translate(224.2819,119.9918)" id="g292">
        <path id="path294" style="fill:#ffffff;fill-opacity:1;fill-rule:nonzero;stroke:none" d="m 0,0 c -0.033,0.228 -0.102,0.435 -0.207,0.621 -0.105,0.187 -0.345,0.28 -0.718,0.28 h -0.9 l -2.531,-16.648 h 1.874 l 1.509,11.488 1.484,-11.488 h 1.874 z"/>
      </g>
    </g>
  </g>
</svg>